<?xml version="1.0" standalone="no"?>
<!DOCTYPE svg PUBLIC "-//W3C//DTD SVG 20010904//EN"
 "http://www.w3.org/TR/2001/REC-SVG-20010904/DTD/svg10.dtd">
<svg version="1.0" xmlns="http://www.w3.org/2000/svg"
 width="5000.000000pt" height="5000.000000pt" viewBox="0 0 5000.000000 5000.000000"
 preserveAspectRatio="xMidYMid meet">
<metadata>
Created by potrace 1.14, written by Peter Selinger 2001-2017
</metadata>
<g transform="translate(0.000000,5000.000000) scale(0.100000,-0.100000)"
fill="#000000" stroke="none">
<path d="M24575 45489 c-588 -10 -1269 -52 -1740 -109 -44 -5 -199 -23 -345
-40 -399 -45 -440 -50 -500 -60 -30 -5 -127 -21 -215 -35 -231 -37 -520 -90
-695 -126 -52 -11 -133 -27 -180 -35 -236 -41 -336 -63 -830 -185 -157 -39
-323 -79 -370 -91 -47 -11 -121 -31 -165 -45 -44 -13 -98 -29 -120 -35 -22 -6
-58 -16 -80 -24 -129 -42 -375 -114 -391 -114 -10 0 -138 -41 -284 -91 -146
-50 -308 -104 -360 -121 -114 -37 -346 -119 -415 -147 -184 -74 -308 -121
-319 -121 -8 0 -106 -39 -218 -86 -111 -47 -243 -102 -293 -121 -49 -20 -110
-45 -135 -56 -24 -10 -54 -23 -66 -27 -28 -11 -362 -165 -399 -184 -16 -9 -36
-16 -43 -16 -22 0 -785 -376 -877 -432 -16 -10 -46 -25 -65 -34 -88 -42 -197
-98 -220 -114 -31 -21 -118 -69 -235 -130 -125 -65 -177 -95 -254 -145 -36
-23 -100 -61 -141 -83 -73 -38 -208 -120 -355 -214 -38 -25 -79 -48 -89 -52
-25 -9 -511 -326 -646 -422 -36 -25 -74 -49 -85 -54 -11 -4 -56 -34 -100 -67
-44 -32 -152 -109 -240 -171 -88 -61 -182 -130 -210 -151 -27 -22 -88 -66
-135 -98 -47 -32 -103 -73 -125 -93 -54 -48 -121 -100 -175 -136 -25 -17 -97
-73 -161 -125 -64 -51 -156 -125 -204 -164 -116 -92 -233 -189 -362 -300 -57
-49 -130 -110 -161 -135 -31 -25 -98 -83 -148 -130 -49 -47 -125 -114 -167
-148 -42 -35 -77 -67 -77 -72 0 -4 -35 -37 -78 -74 -106 -90 -262 -240 -602
-581 -410 -410 -503 -504 -522 -534 -10 -14 -57 -66 -106 -116 -48 -49 -110
-117 -137 -150 -27 -33 -78 -89 -113 -125 -35 -36 -88 -97 -118 -137 -30 -40
-62 -78 -72 -85 -16 -12 -141 -159 -187 -220 -11 -14 -47 -57 -80 -95 -33 -38
-81 -96 -107 -129 -26 -32 -87 -108 -135 -167 -105 -130 -136 -170 -186 -240
-21 -30 -60 -80 -88 -113 -28 -32 -75 -97 -106 -143 -30 -46 -70 -100 -88
-120 -30 -33 -300 -410 -370 -516 -16 -25 -54 -80 -83 -123 -139 -203 -422
-637 -422 -647 0 -9 -69 -124 -90 -150 -26 -31 -90 -137 -170 -280 -40 -71
-92 -159 -115 -195 -23 -36 -67 -112 -97 -170 -31 -58 -84 -154 -119 -215 -34
-60 -95 -173 -134 -250 -39 -77 -105 -203 -148 -280 -42 -77 -83 -158 -91
-180 -8 -22 -64 -139 -125 -261 -61 -122 -111 -226 -111 -232 0 -10 -29 -75
-143 -312 -22 -47 -77 -175 -123 -285 -152 -368 -186 -450 -194 -460 -5 -5
-16 -37 -25 -70 -9 -33 -54 -154 -100 -270 -87 -221 -104 -267 -177 -485 -25
-74 -69 -202 -98 -285 -57 -165 -89 -267 -124 -395 -13 -47 -47 -159 -76 -250
-73 -233 -128 -428 -156 -550 -13 -58 -33 -139 -44 -180 -12 -41 -36 -138 -56
-215 -19 -77 -38 -156 -44 -175 -5 -19 -16 -64 -24 -100 -8 -36 -24 -105 -37
-155 -12 -49 -25 -119 -30 -155 -5 -36 -20 -119 -34 -185 -14 -66 -34 -165
-45 -220 -11 -55 -24 -122 -30 -150 -55 -272 -114 -639 -140 -870 -5 -49 -17
-142 -25 -205 -21 -148 -30 -224 -55 -450 -11 -102 -24 -225 -30 -275 -5 -49
-16 -178 -25 -285 -8 -107 -21 -244 -27 -305 -9 -84 -13 -2648 -15 -10960 -2
-5967 -1 -10860 2 -10873 l5 -22 10453 0 c6593 0 10554 4 10727 10 425 15 986
53 1315 90 50 5 153 17 230 25 155 17 219 25 440 56 83 11 193 25 245 29 144
14 515 75 770 126 41 9 98 19 125 24 28 5 124 24 215 43 91 19 199 40 240 47
72 11 185 36 370 82 233 56 282 69 370 91 52 14 129 34 170 46 41 12 86 21
100 21 14 0 44 7 67 15 24 8 78 24 120 35 85 23 241 70 428 129 66 21 154 47
195 57 64 15 277 86 610 202 47 16 122 41 167 56 82 26 189 67 454 172 76 30
143 54 150 54 13 0 234 90 344 140 33 15 96 42 140 60 228 91 242 97 505 222
58 27 128 58 156 68 28 10 149 67 270 127 120 61 253 126 294 146 75 36 254
131 340 179 25 14 55 29 68 33 13 4 51 23 85 42 136 79 297 168 385 214 50 26
116 63 145 82 49 32 132 81 237 140 25 14 92 55 150 91 58 36 138 85 178 108
40 24 150 94 245 156 95 63 179 117 187 120 14 5 140 89 280 187 36 25 79 53
96 61 18 8 49 30 70 48 40 33 227 168 276 198 15 9 70 50 124 90 53 40 140
105 194 143 54 39 144 106 199 150 55 44 114 89 130 100 42 28 467 371 516
416 22 20 64 55 92 76 29 22 90 74 136 116 47 43 102 90 124 106 22 16 83 69
134 118 52 49 110 100 129 115 19 14 72 61 116 104 45 44 159 151 253 239 214
199 594 580 806 806 88 94 205 219 260 277 56 59 119 129 140 157 22 27 69 79
104 115 35 36 88 97 117 137 30 39 62 78 72 85 22 16 172 194 172 204 0 4 24
33 53 64 56 61 140 163 269 330 45 58 87 108 94 112 6 5 29 34 50 65 33 52
130 180 144 193 17 15 100 129 113 155 8 17 33 50 54 75 22 25 69 86 104 135
93 129 237 335 286 408 23 34 60 89 82 122 79 117 197 296 261 397 35 57 81
126 101 153 20 28 56 86 79 130 23 44 50 89 59 100 19 21 132 208 165 273 11
20 58 102 106 182 48 80 109 186 135 235 62 115 129 237 193 350 29 50 52 97
52 105 0 9 8 27 17 40 22 31 128 232 190 360 26 52 97 199 160 326 62 127 113
235 113 241 0 6 18 49 39 95 112 238 183 400 248 563 22 55 76 188 120 295 44
107 87 215 95 240 9 25 37 99 63 165 26 66 67 176 92 245 25 69 49 130 53 135
5 6 11 28 15 50 4 22 27 94 50 160 75 210 195 574 195 593 0 10 11 51 24 92
80 246 189 631 240 850 13 58 49 204 79 325 61 240 123 525 156 705 11 63 43
234 71 380 47 248 76 423 134 800 3 19 13 103 21 185 8 83 19 182 24 220 37
275 88 800 111 1155 53 799 53 1851 0 2635 -24 358 -66 793 -111 1155 -5 41
-13 118 -19 170 -19 186 -31 286 -40 340 -6 30 -26 154 -46 275 -39 240 -53
318 -120 654 -24 123 -44 234 -44 248 0 13 -6 52 -14 86 -8 34 -26 114 -41
177 -15 63 -60 250 -100 415 -41 165 -88 356 -105 425 -16 69 -53 202 -81 295
-27 94 -59 200 -69 237 -11 37 -31 100 -45 142 -14 41 -25 83 -25 94 0 10 -9
45 -20 78 -11 32 -36 106 -55 164 -18 58 -57 170 -85 250 -29 80 -62 181 -75
225 -23 78 -103 300 -130 360 -23 52 -111 289 -119 320 -8 31 -64 168 -172
418 -35 81 -64 154 -64 161 0 14 -14 45 -135 306 -70 150 -125 275 -125 284 0
3 -51 111 -114 239 -62 127 -132 270 -154 317 -23 47 -59 117 -80 155 -42 77
-97 184 -163 315 -23 47 -50 96 -59 110 -9 14 -50 86 -90 160 -110 204 -159
289 -198 350 -20 30 -55 89 -77 131 -44 84 -166 286 -201 334 -12 17 -36 56
-53 89 -39 75 -334 526 -441 676 -21 30 -39 60 -40 65 0 6 -21 37 -45 70 -24
33 -103 144 -176 248 -73 103 -154 214 -180 247 -27 32 -60 78 -75 102 -28 44
-104 146 -127 170 -17 17 -96 123 -130 174 -16 23 -55 73 -88 110 -32 38 -76
93 -97 122 -20 30 -59 79 -87 111 -54 61 -144 170 -241 290 -33 42 -89 108
-125 147 -35 39 -85 98 -111 130 -25 33 -71 84 -101 114 -30 30 -76 82 -102
115 -26 33 -93 107 -147 165 -55 58 -150 158 -211 223 -142 151 -678 687 -834
834 -274 260 -350 330 -388 358 -22 16 -69 58 -105 93 -36 35 -92 85 -124 111
-33 25 -85 69 -115 97 -69 62 -177 154 -212 180 -29 21 -115 92 -224 185 -38
33 -112 92 -163 132 -51 40 -122 95 -157 122 -35 28 -88 67 -118 89 -31 21
-75 56 -99 77 -23 21 -81 64 -128 96 -47 31 -89 61 -95 67 -11 13 -219 164
-345 251 -47 32 -121 86 -165 118 -44 33 -90 63 -103 68 -12 5 -59 36 -103 68
-44 33 -125 89 -180 123 -55 35 -164 105 -242 157 -78 51 -171 109 -207 128
-36 20 -78 45 -95 58 -43 32 -243 152 -338 203 -43 23 -103 58 -131 76 -65 43
-189 114 -241 139 -22 11 -92 49 -155 85 -235 133 -289 162 -298 162 -6 0 -68
32 -138 70 -71 39 -178 95 -239 125 -364 179 -584 285 -593 285 -8 0 -74 29
-258 115 -107 50 -289 128 -379 163 -70 27 -305 126 -360 152 -47 22 -150 60
-162 60 -7 0 -57 18 -110 39 -54 22 -159 63 -233 91 -74 29 -162 63 -195 76
-33 13 -81 28 -107 34 -25 5 -90 26 -145 45 -198 72 -569 195 -589 195 -11 0
-53 11 -94 24 -76 25 -350 108 -495 151 -44 13 -129 35 -190 50 -60 14 -245
59 -410 100 -475 117 -469 116 -865 190 -107 20 -213 40 -235 45 -56 13 -456
83 -655 114 -91 15 -178 28 -195 31 -16 3 -97 12 -180 20 -82 8 -181 19 -220
24 -197 27 -601 69 -870 90 -530 43 -754 53 -1480 64 -93 1 -345 0 -560 -4z
m1475 -1538 c63 -5 169 -14 235 -20 66 -6 242 -20 390 -31 149 -11 313 -25
365 -30 228 -26 432 -51 515 -64 234 -37 305 -48 507 -76 239 -34 309 -46 668
-119 236 -48 482 -102 865 -191 191 -45 240 -58 429 -114 65 -19 160 -44 212
-56 51 -11 122 -31 158 -44 35 -14 122 -41 193 -61 70 -20 180 -55 243 -77 63
-22 185 -61 270 -88 172 -54 195 -62 325 -113 63 -25 94 -32 102 -25 16 13 42
6 123 -31 49 -23 59 -30 40 -31 -16 -1 1 -11 50 -29 181 -69 363 -141 460
-183 58 -25 116 -49 130 -53 40 -12 385 -163 650 -285 262 -120 803 -387 935
-462 44 -25 129 -71 190 -102 94 -49 106 -53 85 -30 l-25 28 40 -23 c22 -13
80 -46 128 -74 49 -27 84 -53 78 -56 -6 -4 44 -38 110 -76 740 -429 1511 -945
2095 -1405 67 -52 166 -129 220 -170 215 -164 709 -583 1029 -874 330 -301
1038 -1012 1254 -1261 122 -140 251 -286 301 -340 89 -98 359 -420 458 -550
51 -66 127 -163 168 -215 41 -52 140 -183 221 -290 80 -107 170 -226 199 -265
47 -63 96 -133 309 -445 207 -302 589 -911 725 -1155 18 -33 54 -96 80 -140
26 -44 80 -141 120 -215 40 -74 100 -184 133 -245 80 -146 376 -737 431 -861
24 -55 75 -169 113 -254 177 -393 253 -576 412 -985 22 -55 67 -181 101 -279
33 -98 67 -191 74 -205 24 -48 214 -624 251 -760 19 -73 44 -154 55 -180 20
-50 61 -199 80 -296 7 -33 32 -121 57 -195 24 -74 51 -171 59 -215 23 -124 23
-125 39 -119 11 4 15 -1 15 -16 0 -20 -2 -21 -16 -9 -15 12 -16 11 -11 -6 4
-11 20 -74 37 -140 17 -66 35 -133 40 -150 5 -16 21 -88 34 -160 14 -71 41
-204 61 -295 19 -91 46 -232 59 -315 14 -82 45 -260 70 -395 24 -135 52 -317
61 -405 9 -88 19 -162 20 -166 3 -4 28 -193 70 -529 8 -63 21 -227 30 -365 8
-137 22 -340 30 -450 47 -636 47 -1737 0 -2350 -8 -110 -22 -290 -30 -400 -8
-110 -20 -234 -25 -275 -5 -41 -15 -131 -20 -200 -6 -69 -15 -150 -20 -180
-10 -57 -29 -203 -55 -435 -15 -132 -30 -220 -90 -540 -19 -99 -48 -259 -65
-355 -65 -360 -110 -562 -231 -1040 -128 -508 -162 -630 -199 -730 -16 -41
-47 -140 -69 -220 -59 -214 -317 -970 -386 -1130 -20 -47 -58 -143 -85 -215
-54 -142 -168 -421 -249 -610 -74 -172 -81 -187 -137 -304 -28 -58 -90 -189
-137 -291 -92 -197 -282 -577 -376 -750 -32 -58 -75 -139 -96 -180 -21 -41
-43 -81 -49 -89 -5 -7 -35 -59 -66 -115 -112 -200 -326 -564 -406 -688 -27
-42 -62 -99 -79 -128 -40 -68 -431 -657 -525 -790 -146 -207 -254 -354 -449
-610 -200 -264 -316 -411 -426 -540 -44 -52 -110 -131 -145 -175 -105 -131
-425 -493 -604 -685 -116 -125 -641 -655 -796 -804 -395 -381 -430 -412 -955
-854 -288 -243 -395 -330 -570 -462 -82 -63 -193 -147 -245 -187 -267 -204
-927 -662 -1170 -812 -47 -29 -121 -74 -165 -101 -44 -27 -120 -75 -170 -106
-49 -31 -126 -77 -169 -102 -43 -26 -93 -55 -110 -66 -17 -10 -80 -46 -141
-79 -60 -33 -116 -65 -124 -71 -18 -15 -210 -121 -336 -186 -55 -29 -147 -78
-205 -110 -222 -122 -1050 -518 -1255 -600 -125 -50 -200 -83 -220 -95 -11 -7
-38 -18 -60 -25 -22 -7 -92 -35 -155 -63 -63 -27 -171 -69 -240 -93 -69 -25
-177 -67 -240 -94 -63 -26 -173 -67 -244 -90 -71 -22 -143 -48 -160 -57 -17
-9 -65 -26 -106 -38 -147 -44 -247 -75 -390 -124 -80 -27 -178 -57 -218 -66
-40 -9 -119 -32 -175 -51 -56 -19 -142 -46 -192 -59 -49 -13 -148 -40 -220
-59 -196 -54 -463 -120 -625 -155 -80 -18 -190 -43 -245 -56 -95 -23 -275 -61
-395 -84 -346 -65 -669 -118 -855 -142 -49 -6 -119 -17 -155 -24 -36 -8 -114
-19 -175 -25 -60 -6 -155 -17 -210 -25 -272 -38 -795 -82 -1335 -112 -285 -17
-943 -18 -10025 -21 -7062 -2 -9734 0 -9771 8 -81 17 -86 28 -95 193 -12 225
-11 18479 1 19112 13 690 26 1010 44 1158 9 64 20 188 26 275 6 86 22 231 36
322 13 91 29 226 34 300 6 74 18 180 26 235 8 55 20 132 25 170 13 96 66 408
91 535 11 58 26 139 33 180 7 42 24 129 38 195 14 66 31 152 37 190 12 74 46
228 85 385 13 52 38 160 55 240 18 80 42 177 55 217 14 39 45 158 70 265 25
106 56 218 69 248 13 30 36 100 50 155 37 140 213 685 275 855 18 47 52 146
77 220 25 74 58 164 74 200 38 86 90 219 90 231 0 6 27 76 61 157 33 81 74
181 91 222 93 227 314 720 401 895 25 50 85 171 134 270 105 211 310 603 328
625 6 8 21 33 32 55 75 148 369 656 443 765 22 32 40 62 40 65 0 4 30 53 66
109 75 113 96 147 145 226 18 30 46 73 61 95 15 22 87 128 159 235 71 107 158
234 192 282 34 47 93 129 130 182 156 220 468 629 627 821 139 167 162 195
234 285 37 47 85 103 105 125 47 50 185 207 230 260 263 312 1216 1267 1596
1600 44 39 138 122 209 185 71 63 158 138 193 165 34 28 107 86 160 130 98 81
279 227 428 345 44 35 159 122 255 193 246 183 277 206 356 260 38 26 121 84
184 129 167 117 476 323 620 413 172 107 199 124 245 155 42 28 254 155 465
280 69 40 141 84 161 97 19 12 38 23 43 23 4 0 48 24 99 54 51 29 160 88 242
131 83 43 155 81 160 85 17 13 623 317 730 366 55 26 151 71 213 100 62 30
115 54 117 54 3 0 38 15 78 34 39 19 113 50 162 70 50 21 110 46 135 56 25 10
74 31 110 46 36 15 104 44 153 66 48 21 91 38 96 38 10 0 108 37 246 94 91 37
175 69 325 121 58 21 130 48 161 61 31 13 61 24 68 24 11 0 423 135 496 163
22 9 107 34 188 57 81 23 167 50 190 60 24 11 95 31 158 45 62 15 152 38 199
52 113 33 319 86 455 117 61 14 166 39 235 56 199 48 434 99 580 125 74 14
209 40 300 59 151 31 402 72 780 126 415 60 587 80 920 105 113 8 316 24 451
36 136 11 336 24 445 29 255 11 1652 4 1804 -9z"/>
<path d="M23660 40754 c-25 -2 -184 -8 -355 -14 -420 -13 -654 -27 -815 -50
-74 -10 -178 -21 -230 -24 -90 -5 -185 -18 -630 -81 -102 -15 -219 -31 -260
-37 -41 -5 -122 -20 -180 -33 -58 -13 -127 -26 -155 -30 -27 -3 -111 -18 -185
-31 -74 -14 -171 -31 -215 -38 -44 -8 -161 -34 -260 -59 -99 -25 -220 -53
-270 -62 -95 -18 -297 -69 -314 -79 -9 -6 -228 -64 -381 -101 -30 -7 -122 -36
-203 -64 -82 -27 -173 -55 -203 -61 -30 -6 -102 -29 -161 -52 -60 -22 -178
-62 -263 -89 -85 -27 -163 -54 -173 -60 -24 -13 -228 -88 -287 -105 -25 -7
-94 -33 -155 -59 -60 -26 -123 -51 -140 -57 -108 -38 -348 -138 -522 -219 -34
-16 -65 -29 -68 -29 -3 0 -62 -27 -131 -60 -69 -33 -127 -60 -129 -60 -4 0
-279 -132 -395 -189 -117 -58 -394 -202 -405 -211 -5 -4 -55 -31 -110 -60 -55
-29 -129 -69 -165 -90 -36 -20 -91 -52 -123 -69 -32 -18 -79 -45 -105 -61 -26
-16 -85 -50 -132 -76 -47 -26 -123 -72 -170 -101 -47 -30 -150 -95 -230 -145
-80 -49 -188 -118 -240 -153 -52 -35 -132 -87 -176 -116 -186 -123 -440 -303
-719 -512 -154 -115 -242 -184 -493 -386 -79 -64 -171 -138 -206 -166 -63 -51
-156 -131 -276 -240 -36 -33 -124 -112 -195 -175 -734 -653 -1521 -1508 -2157
-2345 -27 -35 -103 -140 -174 -239 -27 -38 -77 -106 -110 -151 -34 -45 -73
-100 -87 -121 -14 -21 -42 -61 -62 -89 -19 -27 -52 -75 -71 -105 -20 -30 -46
-68 -58 -85 -11 -16 -40 -59 -63 -95 -24 -36 -69 -103 -100 -150 -32 -47 -63
-96 -70 -110 -7 -14 -32 -56 -57 -95 -72 -111 -302 -497 -374 -625 -125 -224
-171 -308 -247 -455 -116 -223 -305 -600 -305 -608 0 -3 -30 -68 -66 -144 -36
-76 -70 -147 -75 -158 -4 -11 -36 -83 -70 -160 -34 -77 -79 -184 -100 -238
-21 -54 -54 -130 -73 -170 -19 -39 -58 -137 -86 -217 -29 -80 -56 -149 -60
-155 -4 -5 -13 -28 -20 -50 -7 -22 -16 -44 -20 -50 -4 -5 -17 -39 -28 -75 -11
-36 -39 -117 -62 -180 -24 -63 -56 -155 -72 -205 -56 -176 -88 -271 -121 -370
-19 -55 -49 -152 -66 -215 -18 -63 -43 -153 -57 -200 -38 -129 -132 -487 -179
-680 -7 -30 -18 -75 -24 -100 -24 -96 -33 -138 -46 -215 -8 -44 -28 -145 -46
-225 -17 -80 -38 -179 -45 -220 -8 -41 -18 -88 -24 -105 -5 -16 -14 -67 -19
-113 -6 -46 -13 -87 -16 -91 -2 -5 -12 -60 -20 -122 -9 -63 -24 -166 -35 -229
-19 -119 -31 -206 -55 -420 -7 -69 -18 -147 -24 -175 -5 -27 -12 -93 -16 -145
-3 -52 -12 -138 -20 -190 -8 -52 -19 -183 -24 -290 -6 -107 -16 -278 -22 -380
-6 -102 -14 -378 -17 -615 -10 -631 -8 -17065 1 -17097 6 -19 18 -29 40 -35
18 -4 3853 -6 8522 -5 7419 2 8516 4 8700 17 116 8 325 20 465 25 140 5 273
14 295 20 22 5 101 12 175 16 143 6 757 61 770 69 4 2 67 11 140 20 73 9 136
18 140 20 5 3 43 10 86 15 44 6 115 17 159 25 44 8 168 28 275 45 107 17 222
37 255 45 33 8 94 21 135 29 41 9 116 25 165 37 50 11 131 29 180 39 157 31
267 57 370 85 55 15 120 31 145 36 25 5 68 16 95 24 28 8 84 23 125 34 80 20
204 55 335 95 44 14 141 44 215 66 74 23 159 50 188 61 30 10 61 19 69 19 9 0
41 11 72 24 31 14 117 44 191 66 74 23 164 55 200 70 36 16 121 47 190 70 69
24 136 48 150 55 54 27 200 85 369 145 30 11 59 24 65 29 6 5 61 30 121 55
216 92 320 139 340 153 11 7 25 13 32 13 17 0 275 118 427 196 16 8 75 38 130
65 129 65 117 59 227 117 52 27 153 80 224 117 72 37 135 71 140 75 6 5 35 21
65 37 94 51 223 124 260 147 19 13 136 83 260 157 124 74 244 147 267 164 23
16 60 41 84 55 42 25 307 201 465 309 648 443 1372 1026 1954 1572 396 373
909 901 1123 1157 40 48 98 115 129 150 31 34 119 138 194 230 76 92 140 169
144 172 6 6 186 233 261 330 227 296 490 665 680 955 189 288 216 330 233 364
10 18 39 65 65 104 27 40 61 94 76 120 15 27 40 70 56 95 16 26 41 69 56 96
16 26 52 89 82 139 53 90 173 304 238 427 20 36 55 102 79 147 49 91 264 520
264 527 0 2 29 64 63 138 70 146 91 193 197 438 39 91 80 184 91 208 10 23 19
48 19 55 0 6 7 25 15 41 24 45 103 236 119 286 20 62 60 169 86 227 12 26 41
107 65 178 24 72 62 182 85 245 23 63 51 146 61 183 11 37 43 141 73 230 56
172 82 260 116 397 12 46 28 100 36 120 22 51 50 156 83 305 31 140 73 310 96
390 8 28 24 102 35 165 12 63 28 140 35 170 8 30 19 90 25 134 6 43 20 106 30
140 10 33 21 86 25 116 3 30 12 82 20 115 21 92 44 232 51 315 3 41 17 133 30
204 13 71 24 147 24 170 0 22 9 97 19 166 27 168 39 280 51 435 5 72 16 177
25 235 25 174 65 1074 65 1475 0 382 -46 1346 -70 1465 -5 25 -12 99 -15 165
-4 66 -13 158 -21 205 -8 47 -14 110 -14 141 0 31 -7 92 -14 135 -8 44 -20
124 -26 179 -6 55 -17 127 -25 160 -7 33 -18 103 -25 155 -22 188 -41 316 -55
375 -8 33 -19 89 -25 124 -5 35 -16 85 -24 110 -9 25 -24 100 -36 166 -39 229
-79 427 -90 440 -4 6 -15 44 -24 85 -8 41 -27 122 -41 180 -14 58 -32 132 -39
165 -25 109 -57 227 -71 264 -12 31 -47 154 -108 381 -8 30 -34 107 -57 170
-22 63 -49 149 -60 190 -10 41 -29 104 -43 140 -56 146 -87 230 -119 330 -19
58 -49 139 -66 180 -17 41 -40 100 -51 130 -33 94 -87 230 -136 345 -26 61
-55 133 -65 161 -10 28 -40 100 -68 160 -28 60 -53 119 -57 132 -4 13 -25 60
-46 105 -48 98 -56 116 -105 227 -49 110 -347 701 -406 805 -25 44 -75 136
-113 204 -37 69 -107 190 -154 270 -48 80 -102 173 -121 206 -18 33 -59 98
-90 145 -32 47 -65 101 -75 120 -23 44 -127 207 -271 420 -197 295 -260 385
-349 505 -48 64 -107 146 -131 181 -50 73 -195 261 -269 349 -28 33 -106 130
-173 215 -164 208 -427 512 -726 840 -175 192 -694 714 -846 851 -57 52 -134
121 -170 155 -36 33 -117 105 -180 159 -63 55 -156 135 -206 180 -210 184
-283 246 -359 304 -44 34 -110 85 -146 114 -190 151 -341 267 -403 310 -38 26
-81 57 -95 68 -183 144 -820 571 -1121 752 -63 38 -131 79 -150 91 -46 30
-225 136 -272 161 -110 60 -160 88 -258 146 -124 73 -875 459 -893 459 -3 0
-63 27 -134 61 -332 158 -611 278 -828 359 -27 10 -95 37 -150 60 -55 24 -131
53 -170 65 -38 13 -117 42 -175 65 -58 23 -132 50 -165 60 -55 17 -149 49
-375 129 -47 16 -128 41 -180 55 -52 14 -142 42 -200 61 -58 20 -201 61 -319
91 -117 30 -221 59 -232 64 -30 16 -204 60 -324 81 -60 10 -135 26 -165 35
-119 35 -262 67 -425 95 -93 16 -188 34 -210 40 -22 6 -92 20 -155 30 -63 11
-144 26 -180 34 -36 8 -82 15 -102 15 -21 0 -70 7 -110 15 -40 8 -109 19 -153
25 -44 6 -109 15 -145 19 -36 5 -114 15 -175 21 -60 7 -144 18 -186 25 -42 8
-132 17 -200 20 -68 4 -158 13 -199 20 -41 8 -156 19 -254 25 -99 6 -184 13
-189 17 -22 13 -1426 38 -1557 27z m-3064 -14363 c33 -15 45 -27 55 -57 12
-33 13 -477 11 -2662 -1 -1442 -6 -2632 -11 -2645 -5 -12 -19 -31 -31 -42 -21
-19 -38 -20 -509 -23 -472 -2 -487 -2 -519 18 -18 11 -37 32 -43 47 -6 18 -9
692 -8 2037 3 3382 3 3260 22 3289 33 51 37 52 437 58 453 7 540 4 596 -20z
m-10456 -31 c25 -4 77 -14 115 -20 174 -29 293 -77 427 -173 132 -94 208 -184
287 -342 100 -198 118 -257 173 -555 21 -117 22 -152 23 -560 0 -410 -1 -442
-23 -565 -50 -286 -74 -363 -173 -562 -52 -104 -72 -134 -135 -197 -106 -106
-205 -169 -322 -206 -156 -48 -189 -51 -522 -53 -173 -1 -321 -6 -329 -11 -41
-26 -41 -28 -41 -1077 1 -892 -1 -1004 -15 -1025 -37 -56 -24 -55 -518 -52
-439 3 -456 4 -477 23 -12 11 -26 30 -31 42 -5 13 -9 1207 -10 2654 -1 2541 0
2631 18 2651 10 11 27 24 38 29 27 10 1457 10 1515 -1z m5640 -3 c14 -7 34
-30 44 -52 19 -37 20 -61 17 -418 -1 -208 1 -399 5 -423 8 -56 24 -65 136 -75
102 -10 121 -18 145 -62 16 -29 18 -65 18 -352 0 -338 -3 -367 -47 -394 -12
-7 -58 -15 -102 -18 -110 -6 -123 -9 -142 -38 -14 -22 -16 -146 -15 -1297 0
-700 3 -1304 7 -1343 7 -71 21 -112 47 -133 8 -7 50 -17 93 -22 152 -19 158
-34 159 -390 0 -309 -3 -328 -68 -359 -113 -53 -592 -77 -817 -40 -71 11 -186
58 -240 97 -99 72 -139 135 -208 326 l-37 101 -5 1525 c-3 839 -9 1533 -14
1542 -9 20 -55 34 -143 44 -79 8 -118 32 -134 81 -13 43 -25 576 -14 650 9 61
30 72 166 83 61 5 117 14 123 20 7 7 13 155 16 459 5 478 5 471 55 491 35 15
926 12 955 -3z m-2625 -758 c209 -29 398 -95 535 -189 154 -106 238 -200 338
-378 128 -227 147 -393 139 -1222 -5 -606 -5 -607 -67 -629 -24 -8 -243 -11
-760 -11 -705 0 -727 -1 -744 -19 -10 -11 -21 -34 -24 -53 -4 -18 -5 -274 -2
-568 l5 -535 37 -76 c40 -83 98 -142 150 -153 68 -13 139 -6 194 20 62 29 85
65 124 194 21 69 24 100 29 393 l6 319 27 23 c39 34 99 37 538 33 484 -5 474
-2 491 -133 9 -78 -8 -458 -27 -605 -30 -222 -88 -396 -194 -589 -47 -86 -147
-201 -223 -257 -138 -103 -394 -202 -577 -223 -279 -33 -661 -17 -830 33 -184
56 -332 139 -446 251 -156 153 -245 319 -304 566 -22 90 -52 209 -67 264 l-28
100 0 1195 0 1195 59 185 c82 258 130 350 250 478 67 72 175 162 251 209 60
38 197 98 245 108 19 4 46 13 60 20 45 22 219 57 323 66 117 9 389 2 492 -12z
m4836 10 c139 -11 231 -30 381 -80 285 -94 529 -309 640 -564 56 -130 68 -163
84 -245 15 -77 17 -252 19 -1865 2 -1028 -1 -1795 -6 -1816 -5 -20 -18 -44
-30 -55 -20 -18 -43 -19 -493 -19 -528 0 -511 -2 -542 71 -13 31 -33 224 -34
327 0 20 -4 37 -10 37 -5 0 -10 -11 -10 -25 0 -14 -11 -34 -25 -47 -14 -12
-25 -27 -25 -33 0 -21 -130 -174 -199 -233 -115 -100 -185 -127 -352 -138
-206 -14 -418 29 -539 110 -167 111 -243 214 -332 451 -53 142 -89 402 -104
745 -11 243 38 612 103 785 82 218 230 398 425 516 53 33 201 99 219 99 8 0
28 8 44 19 17 10 48 24 70 31 22 7 49 18 60 25 11 6 88 33 170 59 83 26 170
56 195 67 25 10 83 31 130 45 103 32 156 58 170 83 6 12 10 126 10 299 0 251
-2 285 -20 336 -31 91 -73 142 -145 176 -51 25 -99 25 -155 -1 -103 -47 -134
-106 -145 -284 -9 -140 -22 -215 -40 -235 -9 -10 -35 -21 -58 -24 -23 -3 -233
-6 -468 -7 -481 -2 -482 -2 -495 67 -12 66 2 405 19 452 9 23 21 68 27 101 12
69 66 198 124 295 50 85 180 220 261 271 170 108 449 191 680 204 202 12 251
12 396 0z m6244 -1804 c137 -13 190 -24 330 -66 66 -20 162 -59 195 -80 8 -5
44 -25 80 -44 136 -75 259 -167 360 -270 110 -113 140 -149 182 -211 61 -91
69 -98 115 -90 21 4 63 9 95 12 51 6 57 4 68 -16 16 -29 4 -158 -21 -233 -10
-31 -19 -71 -19 -88 0 -16 -6 -42 -14 -57 -8 -15 -17 -50 -21 -77 -11 -71 -52
-153 -78 -157 -13 -2 -45 12 -77 34 -30 21 -61 38 -67 38 -7 0 -13 4 -13 9 0
5 -15 18 -32 29 -18 12 -55 37 -83 57 -27 19 -81 56 -119 82 -123 83 -148 116
-113 152 12 12 38 31 57 41 117 62 113 55 76 128 -47 92 -242 292 -356 366
-25 16 -57 38 -73 48 -52 36 -182 95 -234 108 -29 6 -69 20 -90 31 -20 10 -52
19 -70 19 -18 0 -54 8 -80 17 -70 25 -417 25 -482 0 -24 -9 -55 -17 -70 -17
-14 0 -49 -11 -76 -24 -28 -12 -68 -26 -90 -30 -47 -9 -177 -69 -222 -102 -17
-13 -34 -24 -37 -24 -9 0 -100 -64 -135 -95 -115 -101 -239 -238 -286 -316
-11 -18 -28 -45 -37 -59 -42 -61 -88 -172 -122 -290 -7 -25 -18 -56 -25 -67
-6 -12 -11 -37 -11 -55 0 -18 -9 -75 -20 -127 -11 -52 -20 -117 -20 -146 0
-29 9 -94 20 -146 11 -52 20 -111 20 -132 0 -21 6 -48 12 -60 7 -12 18 -42 25
-67 31 -117 100 -273 147 -332 11 -15 34 -48 51 -75 34 -55 199 -228 277 -290
56 -44 231 -153 247 -153 4 0 14 -7 21 -14 6 -8 28 -20 48 -26 20 -6 46 -16
57 -21 64 -29 181 -60 250 -65 102 -8 125 -20 61 -29 -77 -12 -226 2 -271 25
-22 11 -48 20 -58 20 -10 0 -35 9 -55 19 -66 34 -129 61 -143 61 -8 1 -39 16
-69 35 -30 19 -68 41 -83 50 -103 59 -281 223 -374 345 -79 105 -193 303 -193
337 0 6 -6 24 -14 40 -21 41 -50 126 -77 223 -22 79 -24 103 -24 315 1 210 3
237 24 315 24 85 52 168 77 225 83 191 84 192 161 305 46 66 216 249 287 308
28 24 63 54 78 67 49 41 346 205 373 205 6 0 46 11 90 24 133 41 165 47 290
57 66 5 125 11 130 13 19 8 112 5 250 -9z m686 -1717 c30 -23 73 -61 96 -85
43 -43 133 -174 133 -194 0 -7 9 -26 19 -43 10 -17 22 -50 26 -73 6 -36 4 -44
-12 -50 -10 -3 -33 -18 -51 -31 -29 -22 -36 -23 -56 -12 -17 9 -25 24 -30 57
-3 24 -12 57 -19 71 -8 15 -20 40 -28 57 -20 41 -45 44 -53 7 -7 -31 8 -82 24
-82 5 0 10 -24 10 -54 0 -38 6 -60 20 -79 26 -32 26 -96 2 -128 -11 -13 -22
-41 -25 -63 -6 -38 -31 -86 -45 -86 -4 1 -16 15 -28 33 -26 43 -114 224 -114
237 0 6 -10 32 -22 58 -21 43 -23 61 -23 227 0 180 0 180 28 228 39 64 73 65
148 5z m624 -458 c38 -36 36 -46 -34 -155 -50 -79 -153 -167 -253 -217 -51
-26 -102 -49 -113 -51 -11 -3 -34 -11 -51 -18 -39 -16 -80 -5 -87 22 -3 12 2
38 13 58 10 20 21 58 25 84 4 26 11 47 15 47 4 0 24 26 44 59 42 67 146 155
196 166 18 4 47 14 64 21 49 23 149 14 181 -16z m-1155 -789 c0 -10 -101 -20
-136 -13 -13 2 -21 8 -18 13 7 12 154 12 154 0z m7371 -1678 c77 -30 70 215
69 -2714 0 -1446 -4 -2639 -9 -2652 -5 -12 -18 -31 -30 -41 -20 -18 -41 -19
-478 -17 -495 3 -518 5 -542 57 -6 14 -11 48 -11 77 -1 87 -17 186 -36 214
-16 25 -18 26 -28 9 -6 -10 -38 -55 -71 -100 -167 -227 -307 -296 -594 -296
-281 1 -467 70 -614 229 -127 137 -204 292 -232 463 -8 51 -19 109 -25 128
-27 92 -49 441 -52 820 -4 542 11 1898 23 2060 10 129 27 207 81 380 57 182
204 366 394 493 68 46 198 85 339 103 113 15 145 16 250 5 167 -18 262 -57
405 -166 86 -65 110 -75 127 -52 23 28 26 90 24 470 -2 428 3 498 42 518 46
25 87 27 499 28 376 1 433 -1 469 -16z m-21557 -39 c44 -13 90 -24 102 -24 42
0 188 -51 263 -92 227 -123 360 -280 466 -548 57 -145 68 -191 112 -455 27
-163 27 -907 0 -1070 -43 -260 -78 -376 -174 -575 -49 -101 -66 -125 -137
-196 -95 -95 -191 -159 -296 -198 -140 -52 -191 -58 -530 -62 -173 -3 -325 -7
-337 -9 -13 -3 -30 -19 -39 -36 -14 -28 -15 -133 -13 -1040 3 -1000 2 -1010
-18 -1037 -38 -52 -35 -52 -520 -49 l-451 2 -26 24 c-14 13 -30 38 -36 56 -7
22 -8 204 -1 596 5 310 7 1489 4 2620 l-4 2057 24 28 c20 22 36 29 78 34 30 3
369 4 754 1 l700 -4 79 -23z m8562 -743 c212 -33 337 -92 469 -225 78 -79 140
-181 185 -305 39 -109 87 -293 95 -366 4 -33 13 -98 21 -144 11 -68 14 -279
14 -1155 -1 -589 -5 -1127 -10 -1196 -15 -207 -39 -439 -49 -478 -5 -20 -12
-59 -16 -87 -15 -112 -101 -313 -174 -410 -100 -131 -193 -205 -323 -255 -155
-59 -406 -77 -624 -44 -111 16 -142 28 -318 123 -58 31 -82 39 -90 31 -8 -8
-11 -153 -11 -498 -1 -348 -4 -495 -13 -514 -7 -16 -23 -31 -39 -35 -15 -4
-244 -8 -508 -8 -519 0 -511 -1 -540 54 -22 43 -24 5330 -2 5382 19 46 44 66
97 78 59 14 813 4 893 -11 73 -14 103 -37 111 -85 17 -100 14 -95 44 -74 36
24 126 81 187 119 77 47 177 83 284 102 130 23 167 23 317 1z m2769 -4 c124
-16 200 -33 296 -67 272 -94 520 -308 663 -574 63 -117 130 -322 163 -501 17
-93 18 -177 18 -1200 0 -1023 -1 -1108 -19 -1215 -31 -197 -108 -457 -156
-534 -17 -26 -30 -49 -30 -52 0 -25 -89 -140 -160 -207 -182 -174 -402 -274
-686 -312 -208 -28 -396 -30 -589 -6 -184 23 -289 51 -428 113 -164 74 -312
191 -414 328 -52 70 -142 237 -171 317 -88 242 -92 304 -92 1568 0 1198 2
1240 66 1445 42 133 122 293 189 377 149 186 217 253 339 330 145 93 353 164
548 189 68 8 128 17 133 19 18 8 208 -3 330 -18z m3060 4 c61 -6 144 -19 185
-27 83 -18 229 -62 245 -74 6 -5 30 -16 55 -26 101 -40 250 -151 333 -249 132
-155 210 -331 261 -590 20 -98 26 -159 26 -258 l0 -129 -29 -29 -29 -29 -414
-2 c-614 -4 -623 -3 -648 50 -7 15 -16 92 -20 172 -10 164 -26 224 -76 286
-40 49 -102 70 -181 59 -80 -11 -110 -24 -147 -65 -57 -64 -69 -145 -41 -281
34 -163 100 -229 521 -529 261 -186 493 -372 612 -490 90 -90 227 -264 289
-365 231 -384 260 -988 67 -1427 -80 -185 -239 -375 -388 -463 -212 -127 -367
-176 -656 -209 -179 -21 -283 -20 -481 4 -241 30 -367 72 -564 187 -110 64
-262 221 -336 348 -83 140 -117 249 -165 520 -23 131 -27 179 -28 377 -1 215
0 228 20 254 13 18 35 31 60 37 21 4 237 7 479 5 486 -3 480 -3 511 -67 15
-30 19 -79 25 -281 7 -268 25 -370 75 -437 49 -65 137 -92 252 -78 50 6 62 12
97 49 88 92 121 312 74 492 -29 113 -55 179 -91 233 -50 74 -205 227 -308 305
-109 83 -235 180 -323 249 -34 27 -105 81 -157 120 -208 157 -385 330 -529
517 -36 47 -99 197 -106 254 -4 28 -13 75 -22 104 -18 63 -30 345 -22 492 6
111 37 234 85 345 29 66 102 168 183 257 185 202 528 355 871 388 63 6 117 14
120 17 7 7 178 -2 315 -16z m3050 -1 c336 -35 557 -127 746 -307 197 -188 277
-372 328 -748 27 -202 35 -518 22 -910 -11 -339 -19 -408 -51 -440 -20 -20
-36 -20 -765 -25 l-745 -5 -26 -26 -26 -27 1 -473 c1 -261 6 -503 11 -539 29
-192 60 -265 139 -318 41 -28 55 -32 114 -32 143 0 219 69 253 229 10 48 14
148 14 374 l0 309 28 28 c40 40 72 42 547 38 540 -4 515 8 515 -247 0 -160
-27 -396 -71 -616 -68 -339 -224 -606 -431 -739 -179 -114 -338 -166 -603
-197 -212 -25 -400 -21 -610 11 -150 23 -253 57 -397 132 -166 86 -326 257
-410 438 -14 30 -39 84 -56 120 -39 84 -49 119 -79 259 -24 112 -25 136 -34
756 -5 352 -8 933 -6 1290 3 556 6 661 20 725 54 242 179 464 349 618 105 95
296 208 413 244 123 37 240 61 369 74 83 9 153 18 156 21 6 6 136 -1 285 -17z
m-11151 -4 c57 -24 61 -49 61 -406 0 -351 -6 -418 -38 -456 -21 -24 -33 -27
-167 -40 -174 -16 -264 -33 -390 -72 -109 -33 -166 -60 -195 -92 -20 -22 -20
-40 -25 -1775 l-5 -1753 -24 -26 -24 -26 -476 0 c-433 0 -479 2 -511 18 -23
11 -39 28 -46 50 -13 41 -17 4444 -4 4478 5 13 21 31 37 41 25 17 60 18 468
18 604 0 570 14 590 -235 7 -89 17 -166 23 -172 6 -6 19 12 37 49 31 64 164
209 252 274 80 60 198 112 283 125 103 16 116 16 154 0z m-3998 -52 c95 -19
109 -75 100 -409 -3 -126 -6 -867 -7 -1645 l0 -1415 25 -99 c20 -79 32 -106
58 -134 45 -47 121 -82 181 -82 56 0 155 45 179 82 19 30 55 126 69 186 8 33
12 569 15 1740 3 1354 6 1698 16 1719 7 15 29 36 48 47 34 20 49 21 465 20
379 0 437 -2 488 -17 44 -14 60 -24 67 -43 13 -34 13 -4454 0 -4488 -19 -51
-19 -51 -530 -47 -515 3 -505 2 -533 59 -9 16 -17 78 -21 153 -6 122 -19 189
-36 189 -5 0 -12 -10 -15 -22 -13 -43 -120 -193 -185 -259 -87 -88 -163 -125
-311 -151 -231 -40 -554 9 -680 104 -118 89 -206 196 -258 315 -37 85 -46 119
-76 287 -55 308 -56 374 -53 2171 2 1262 6 1656 15 1677 7 15 27 35 45 45 29
16 73 19 398 24 370 6 480 5 536 -7z"/>
<path d="M9634 25355 c-13 -32 -15 -113 -12 -629 3 -543 4 -594 20 -618 26
-40 71 -44 186 -18 147 34 194 73 254 212 28 65 32 87 37 203 3 72 3 229 0
350 l-5 220 -34 85 c-43 109 -85 161 -158 197 -49 24 -71 28 -165 32 l-107 3
-16 -37z"/>
<path d="M12725 24771 c-90 -56 -140 -151 -155 -294 -13 -130 -15 -674 -1
-709 5 -14 18 -29 28 -32 28 -9 445 -11 470 -3 40 14 45 60 41 392 l-4 310
-33 120 c-34 127 -58 170 -121 213 -45 30 -179 32 -225 3z"/>
<path d="M17829 23336 c-53 -31 -102 -73 -162 -137 -134 -142 -130 -123 -135
-664 -4 -460 2 -562 38 -640 72 -157 286 -173 377 -28 63 99 64 117 61 848
l-3 660 -50 3 c-44 2 -59 -3 -126 -42z"/>
<path d="M24864 22005 c-7 -18 3 -35 21 -35 21 0 28 19 15 35 -16 19 -29 19
-36 0z"/>
<path d="M24916 21931 c-13 -20 3 -80 25 -91 38 -21 55 21 22 51 -10 9 -23 24
-29 34 -8 14 -12 16 -18 6z"/>
<path d="M25434 21597 c-23 -7 -48 -17 -55 -23 -8 -6 -24 -15 -36 -18 -13 -4
-23 -11 -23 -16 0 -5 -12 -16 -27 -24 -33 -18 -110 -84 -154 -133 -24 -27 -61
-111 -54 -123 10 -17 22 -12 62 27 21 20 63 56 93 81 30 24 71 61 90 82 19 20
45 40 56 44 12 3 29 15 39 26 10 11 26 20 35 20 25 0 43 25 35 50 -7 22 -5 22
-61 7z"/>
<path d="M30366 17520 c-58 -18 -109 -88 -142 -195 -18 -57 -19 -120 -19
-1245 l0 -1185 28 -88 c51 -162 85 -212 175 -248 58 -24 90 -21 177 15 72 30
120 154 146 380 17 147 19 248 19 1141 0 831 -2 996 -15 1090 -26 180 -81 302
-151 331 -37 15 -171 18 -218 4z"/>
<path d="M9682 18172 c-62 -6 -62 -4 -62 -641 -1 -374 3 -585 10 -611 17 -64
33 -73 114 -67 178 12 263 65 327 202 20 44 40 98 43 120 10 70 14 466 6 574
-15 192 -95 341 -211 391 -52 22 -164 38 -227 32z"/>
<path d="M18121 17519 c-88 -21 -155 -121 -181 -271 -7 -43 -10 -431 -8 -1248
l3 -1185 27 -80 c33 -98 71 -145 144 -181 65 -32 115 -29 193 10 69 35 96 87
121 236 19 113 20 162 20 1251 -1 1057 -2 1141 -19 1241 -21 121 -50 183 -99
211 -39 23 -138 31 -201 16z"/>
<path d="M21197 17520 c-39 -12 -55 -27 -95 -89 -29 -45 -37 -72 -52 -170 -17
-106 -19 -218 -23 -1245 l-5 -1128 25 -102 c42 -174 109 -247 235 -254 59 -4
75 0 132 26 75 35 96 66 129 192 19 73 19 111 18 1270 -2 1314 -1 1295 -62
1411 -41 77 -72 93 -184 96 -49 1 -103 -2 -118 -7z"/>
<path d="M27324 17569 c-39 -11 -120 -96 -144 -152 -10 -23 -28 -103 -40 -179
-19 -122 -21 -165 -17 -410 2 -150 7 -283 11 -295 13 -36 57 -43 276 -43 198
0 208 1 226 21 18 20 19 43 22 358 2 213 -1 360 -8 401 -17 99 -51 197 -82
234 -54 66 -152 92 -244 65z"/>
</g>
</svg>
